<mxfile host="Electron" agent="Mozilla/5.0 (Windows NT 10.0; Win64; x64) AppleWebKit/537.36 (KHTML, like Gecko) draw.io/26.0.16 Chrome/132.0.6834.196 Electron/34.2.0 Safari/537.36" version="26.0.16" pages="2">
  <diagram id="6a731a19-8d31-9384-78a2-239565b7b9f0" name="Página 1">
    <mxGraphModel dx="1235" dy="740" grid="1" gridSize="10" guides="1" tooltips="1" connect="1" arrows="1" fold="1" page="1" pageScale="1" pageWidth="1169" pageHeight="827" background="none" math="0" shadow="0">
      <root>
        <mxCell id="0" />
        <mxCell id="1" parent="0" />
        <mxCell id="sBeESrhMqnMgl-yAjxgN-76" value="&lt;b style=&quot;&quot;&gt;&lt;font style=&quot;font-size: 18px;&quot;&gt;Comportamento do semáforos&lt;/font&gt;&lt;/b&gt;" style="swimlane;whiteSpace=wrap;html=1;spacing=2;rounded=0;" parent="1" vertex="1">
          <mxGeometry x="30" y="30" width="520" height="680" as="geometry" />
        </mxCell>
        <mxCell id="ndApxbI7P8hkZsgr86GA-19" style="edgeStyle=orthogonalEdgeStyle;rounded=0;orthogonalLoop=1;jettySize=auto;html=1;entryX=0.5;entryY=0;entryDx=0;entryDy=0;" parent="sBeESrhMqnMgl-yAjxgN-76" source="sBeESrhMqnMgl-yAjxgN-79" target="ndApxbI7P8hkZsgr86GA-18" edge="1">
          <mxGeometry relative="1" as="geometry" />
        </mxCell>
        <mxCell id="sBeESrhMqnMgl-yAjxgN-79" value="Início" style="ellipse;whiteSpace=wrap;html=1;rounded=0;" parent="sBeESrhMqnMgl-yAjxgN-76" vertex="1">
          <mxGeometry x="205" y="60" width="110" height="30" as="geometry" />
        </mxCell>
        <mxCell id="sBeESrhMqnMgl-yAjxgN-96" value="Fim" style="ellipse;whiteSpace=wrap;html=1;rounded=0;" parent="sBeESrhMqnMgl-yAjxgN-76" vertex="1">
          <mxGeometry x="205" y="630" width="110" height="30" as="geometry" />
        </mxCell>
        <mxCell id="ndApxbI7P8hkZsgr86GA-29" style="edgeStyle=orthogonalEdgeStyle;rounded=0;orthogonalLoop=1;jettySize=auto;html=1;entryX=0.5;entryY=0;entryDx=0;entryDy=0;" parent="sBeESrhMqnMgl-yAjxgN-76" source="ndApxbI7P8hkZsgr86GA-18" target="ndApxbI7P8hkZsgr86GA-28" edge="1">
          <mxGeometry relative="1" as="geometry" />
        </mxCell>
        <mxCell id="ndApxbI7P8hkZsgr86GA-18" value="Algoritmo de&lt;div&gt;mensuramento&lt;/div&gt;&lt;div&gt;de trânsito&lt;/div&gt;&lt;div&gt;&lt;font size=&quot;1&quot;&gt;(núm. de 0 a 2)&lt;/font&gt;&lt;/div&gt;" style="shape=process;whiteSpace=wrap;html=1;backgroundOutline=1;rounded=0;" parent="sBeESrhMqnMgl-yAjxgN-76" vertex="1">
          <mxGeometry x="200" y="180" width="120" height="60" as="geometry" />
        </mxCell>
        <mxCell id="ndApxbI7P8hkZsgr86GA-28" value="Caso for igual a..." style="rhombus;whiteSpace=wrap;html=1;rounded=0;" parent="sBeESrhMqnMgl-yAjxgN-76" vertex="1">
          <mxGeometry x="170" y="300" width="180" height="80" as="geometry" />
        </mxCell>
        <mxCell id="ndApxbI7P8hkZsgr86GA-40" style="edgeStyle=orthogonalEdgeStyle;rounded=0;orthogonalLoop=1;jettySize=auto;html=1;entryX=0;entryY=0.5;entryDx=0;entryDy=0;exitX=0.5;exitY=1;exitDx=0;exitDy=0;curved=1;" parent="sBeESrhMqnMgl-yAjxgN-76" source="ndApxbI7P8hkZsgr86GA-30" target="sBeESrhMqnMgl-yAjxgN-96" edge="1">
          <mxGeometry relative="1" as="geometry" />
        </mxCell>
        <mxCell id="ndApxbI7P8hkZsgr86GA-30" value="Alto período de&lt;div&gt;sinal vermelho&lt;/div&gt;" style="rounded=0;whiteSpace=wrap;html=1;" parent="sBeESrhMqnMgl-yAjxgN-76" vertex="1">
          <mxGeometry x="60" y="470" width="120" height="60" as="geometry" />
        </mxCell>
        <mxCell id="ndApxbI7P8hkZsgr86GA-41" style="edgeStyle=orthogonalEdgeStyle;rounded=0;orthogonalLoop=1;jettySize=auto;html=1;entryX=0.5;entryY=0;entryDx=0;entryDy=0;" parent="sBeESrhMqnMgl-yAjxgN-76" source="ndApxbI7P8hkZsgr86GA-31" target="sBeESrhMqnMgl-yAjxgN-96" edge="1">
          <mxGeometry relative="1" as="geometry" />
        </mxCell>
        <mxCell id="ndApxbI7P8hkZsgr86GA-31" value="Médio período de&lt;div&gt;sinal vermelho&lt;/div&gt;" style="rounded=0;whiteSpace=wrap;html=1;" parent="sBeESrhMqnMgl-yAjxgN-76" vertex="1">
          <mxGeometry x="200" y="470" width="120" height="60" as="geometry" />
        </mxCell>
        <mxCell id="ndApxbI7P8hkZsgr86GA-42" style="edgeStyle=orthogonalEdgeStyle;rounded=0;orthogonalLoop=1;jettySize=auto;html=1;entryX=1;entryY=0.5;entryDx=0;entryDy=0;exitX=0.5;exitY=1;exitDx=0;exitDy=0;curved=1;" parent="sBeESrhMqnMgl-yAjxgN-76" source="ndApxbI7P8hkZsgr86GA-32" target="sBeESrhMqnMgl-yAjxgN-96" edge="1">
          <mxGeometry relative="1" as="geometry" />
        </mxCell>
        <mxCell id="ndApxbI7P8hkZsgr86GA-32" value="Baixo período de&lt;div&gt;sinal vermelho&lt;/div&gt;" style="rounded=0;whiteSpace=wrap;html=1;" parent="sBeESrhMqnMgl-yAjxgN-76" vertex="1">
          <mxGeometry x="340" y="470" width="120" height="60" as="geometry" />
        </mxCell>
        <mxCell id="ndApxbI7P8hkZsgr86GA-33" value="" style="endArrow=classic;html=1;rounded=0;exitX=0;exitY=1;exitDx=0;exitDy=0;entryX=0.5;entryY=0;entryDx=0;entryDy=0;edgeStyle=orthogonalEdgeStyle;curved=1;" parent="sBeESrhMqnMgl-yAjxgN-76" source="ndApxbI7P8hkZsgr86GA-28" target="ndApxbI7P8hkZsgr86GA-30" edge="1">
          <mxGeometry relative="1" as="geometry">
            <mxPoint x="250" y="440" as="sourcePoint" />
            <mxPoint x="350" y="440" as="targetPoint" />
          </mxGeometry>
        </mxCell>
        <mxCell id="ndApxbI7P8hkZsgr86GA-34" value="0" style="edgeLabel;resizable=0;html=1;;align=center;verticalAlign=middle;rounded=0;" parent="ndApxbI7P8hkZsgr86GA-33" connectable="0" vertex="1">
          <mxGeometry relative="1" as="geometry" />
        </mxCell>
        <mxCell id="ndApxbI7P8hkZsgr86GA-36" value="" style="endArrow=classic;html=1;rounded=0;exitX=0.5;exitY=1;exitDx=0;exitDy=0;entryX=0.5;entryY=0;entryDx=0;entryDy=0;edgeStyle=orthogonalEdgeStyle;curved=1;" parent="sBeESrhMqnMgl-yAjxgN-76" source="ndApxbI7P8hkZsgr86GA-28" target="ndApxbI7P8hkZsgr86GA-31" edge="1">
          <mxGeometry relative="1" as="geometry">
            <mxPoint x="250" y="440" as="sourcePoint" />
            <mxPoint x="350" y="440" as="targetPoint" />
          </mxGeometry>
        </mxCell>
        <mxCell id="ndApxbI7P8hkZsgr86GA-37" value="1" style="edgeLabel;resizable=0;html=1;;align=center;verticalAlign=middle;rounded=0;" parent="ndApxbI7P8hkZsgr86GA-36" connectable="0" vertex="1">
          <mxGeometry relative="1" as="geometry" />
        </mxCell>
        <mxCell id="ndApxbI7P8hkZsgr86GA-38" value="" style="endArrow=classic;html=1;rounded=0;entryX=0.5;entryY=0;entryDx=0;entryDy=0;exitX=1;exitY=1;exitDx=0;exitDy=0;edgeStyle=orthogonalEdgeStyle;curved=1;" parent="sBeESrhMqnMgl-yAjxgN-76" source="ndApxbI7P8hkZsgr86GA-28" target="ndApxbI7P8hkZsgr86GA-32" edge="1">
          <mxGeometry relative="1" as="geometry">
            <mxPoint x="270" y="390" as="sourcePoint" />
            <mxPoint x="270" y="480" as="targetPoint" />
          </mxGeometry>
        </mxCell>
        <mxCell id="ndApxbI7P8hkZsgr86GA-39" value="2" style="edgeLabel;resizable=0;html=1;;align=center;verticalAlign=middle;rounded=0;" parent="ndApxbI7P8hkZsgr86GA-38" connectable="0" vertex="1">
          <mxGeometry relative="1" as="geometry" />
        </mxCell>
        <mxCell id="sBeESrhMqnMgl-yAjxgN-95" value="&lt;font style=&quot;font-size: 18px;&quot;&gt;Placa de sinalização de condição do trânsito&lt;/font&gt;" style="swimlane;whiteSpace=wrap;html=1;rounded=0;" parent="1" vertex="1">
          <mxGeometry x="610" y="30" width="580" height="680" as="geometry" />
        </mxCell>
        <mxCell id="sBeESrhMqnMgl-yAjxgN-106" style="edgeStyle=orthogonalEdgeStyle;rounded=0;orthogonalLoop=1;jettySize=auto;html=1;entryX=0.5;entryY=0;entryDx=0;entryDy=0;" parent="sBeESrhMqnMgl-yAjxgN-95" source="sBeESrhMqnMgl-yAjxgN-99" target="sBeESrhMqnMgl-yAjxgN-105" edge="1">
          <mxGeometry relative="1" as="geometry" />
        </mxCell>
        <mxCell id="sBeESrhMqnMgl-yAjxgN-99" value="Início" style="ellipse;whiteSpace=wrap;html=1;rounded=0;" parent="sBeESrhMqnMgl-yAjxgN-95" vertex="1">
          <mxGeometry x="235" y="60" width="110" height="30" as="geometry" />
        </mxCell>
        <mxCell id="sBeESrhMqnMgl-yAjxgN-119" style="edgeStyle=orthogonalEdgeStyle;rounded=0;orthogonalLoop=1;jettySize=auto;html=1;entryX=0.5;entryY=0;entryDx=0;entryDy=0;" parent="sBeESrhMqnMgl-yAjxgN-95" source="sBeESrhMqnMgl-yAjxgN-105" target="sBeESrhMqnMgl-yAjxgN-116" edge="1">
          <mxGeometry relative="1" as="geometry" />
        </mxCell>
        <mxCell id="sBeESrhMqnMgl-yAjxgN-105" value="Algoritmo de&lt;div&gt;mensuramento&lt;/div&gt;&lt;div&gt;de trânsito&lt;/div&gt;&lt;div&gt;&lt;font size=&quot;1&quot;&gt;(núm. de 0 a 2)&lt;/font&gt;&lt;/div&gt;" style="shape=process;whiteSpace=wrap;html=1;backgroundOutline=1;rounded=0;" parent="sBeESrhMqnMgl-yAjxgN-95" vertex="1">
          <mxGeometry x="230" y="170" width="120" height="60" as="geometry" />
        </mxCell>
        <mxCell id="sBeESrhMqnMgl-yAjxgN-116" value="Se for igual a.&lt;span style=&quot;background-color: transparent; color: light-dark(rgb(0, 0, 0), rgb(255, 255, 255));&quot;&gt;..&lt;/span&gt;" style="rhombus;whiteSpace=wrap;html=1;rounded=0;" parent="sBeESrhMqnMgl-yAjxgN-95" vertex="1">
          <mxGeometry x="230" y="280" width="120" height="80" as="geometry" />
        </mxCell>
        <mxCell id="sBeESrhMqnMgl-yAjxgN-135" style="edgeStyle=orthogonalEdgeStyle;rounded=0;orthogonalLoop=1;jettySize=auto;html=1;entryX=0;entryY=0.5;entryDx=0;entryDy=0;" parent="sBeESrhMqnMgl-yAjxgN-95" source="sBeESrhMqnMgl-yAjxgN-120" target="sBeESrhMqnMgl-yAjxgN-134" edge="1">
          <mxGeometry relative="1" as="geometry" />
        </mxCell>
        <mxCell id="sBeESrhMqnMgl-yAjxgN-120" value="Indicador verde&lt;div&gt;(trânsito nenhum ou leve)&lt;/div&gt;" style="rounded=0;whiteSpace=wrap;html=1;" parent="sBeESrhMqnMgl-yAjxgN-95" vertex="1">
          <mxGeometry x="65" y="510" width="120" height="60" as="geometry" />
        </mxCell>
        <mxCell id="sBeESrhMqnMgl-yAjxgN-136" style="edgeStyle=orthogonalEdgeStyle;rounded=0;orthogonalLoop=1;jettySize=auto;html=1;entryX=0.5;entryY=0;entryDx=0;entryDy=0;" parent="sBeESrhMqnMgl-yAjxgN-95" source="sBeESrhMqnMgl-yAjxgN-121" target="sBeESrhMqnMgl-yAjxgN-134" edge="1">
          <mxGeometry relative="1" as="geometry" />
        </mxCell>
        <mxCell id="sBeESrhMqnMgl-yAjxgN-121" value="Indicador amarelo&lt;div&gt;(trânsito moderado)&amp;nbsp;&lt;/div&gt;" style="rounded=0;whiteSpace=wrap;html=1;" parent="sBeESrhMqnMgl-yAjxgN-95" vertex="1">
          <mxGeometry x="230" y="510" width="120" height="60" as="geometry" />
        </mxCell>
        <mxCell id="sBeESrhMqnMgl-yAjxgN-137" style="edgeStyle=orthogonalEdgeStyle;rounded=0;orthogonalLoop=1;jettySize=auto;html=1;entryX=1;entryY=0.5;entryDx=0;entryDy=0;" parent="sBeESrhMqnMgl-yAjxgN-95" source="sBeESrhMqnMgl-yAjxgN-122" target="sBeESrhMqnMgl-yAjxgN-134" edge="1">
          <mxGeometry relative="1" as="geometry" />
        </mxCell>
        <mxCell id="sBeESrhMqnMgl-yAjxgN-122" value="Indicador vermelho&lt;div&gt;(trânsito intenso)&lt;/div&gt;" style="rounded=0;whiteSpace=wrap;html=1;" parent="sBeESrhMqnMgl-yAjxgN-95" vertex="1">
          <mxGeometry x="395" y="510" width="120" height="60" as="geometry" />
        </mxCell>
        <mxCell id="sBeESrhMqnMgl-yAjxgN-134" value="Fim" style="ellipse;whiteSpace=wrap;html=1;rounded=0;" parent="sBeESrhMqnMgl-yAjxgN-95" vertex="1">
          <mxGeometry x="235" y="620" width="110" height="30" as="geometry" />
        </mxCell>
        <mxCell id="oj-2N7qAicwLTaKQeDl2-1" value="" style="endArrow=classic;html=1;rounded=0;exitX=0;exitY=1;exitDx=0;exitDy=0;entryX=0.5;entryY=0;entryDx=0;entryDy=0;edgeStyle=orthogonalEdgeStyle;curved=1;" edge="1" parent="sBeESrhMqnMgl-yAjxgN-95" source="sBeESrhMqnMgl-yAjxgN-116" target="sBeESrhMqnMgl-yAjxgN-120">
          <mxGeometry relative="1" as="geometry">
            <mxPoint x="120" y="370" as="sourcePoint" />
            <mxPoint x="220" y="370" as="targetPoint" />
          </mxGeometry>
        </mxCell>
        <mxCell id="oj-2N7qAicwLTaKQeDl2-2" value="0" style="edgeLabel;resizable=0;html=1;;align=center;verticalAlign=middle;" connectable="0" vertex="1" parent="oj-2N7qAicwLTaKQeDl2-1">
          <mxGeometry relative="1" as="geometry">
            <mxPoint x="35" y="22" as="offset" />
          </mxGeometry>
        </mxCell>
        <mxCell id="oj-2N7qAicwLTaKQeDl2-6" value="" style="endArrow=classic;html=1;rounded=0;exitX=0.5;exitY=1;exitDx=0;exitDy=0;entryX=0.5;entryY=0;entryDx=0;entryDy=0;edgeStyle=orthogonalEdgeStyle;curved=1;" edge="1" parent="sBeESrhMqnMgl-yAjxgN-95" source="sBeESrhMqnMgl-yAjxgN-116" target="sBeESrhMqnMgl-yAjxgN-121">
          <mxGeometry relative="1" as="geometry">
            <mxPoint x="120" y="370" as="sourcePoint" />
            <mxPoint x="220" y="370" as="targetPoint" />
          </mxGeometry>
        </mxCell>
        <mxCell id="oj-2N7qAicwLTaKQeDl2-7" value="1" style="edgeLabel;resizable=0;html=1;;align=center;verticalAlign=middle;" connectable="0" vertex="1" parent="oj-2N7qAicwLTaKQeDl2-6">
          <mxGeometry relative="1" as="geometry" />
        </mxCell>
        <mxCell id="oj-2N7qAicwLTaKQeDl2-8" value="" style="endArrow=classic;html=1;rounded=0;exitX=1;exitY=1;exitDx=0;exitDy=0;entryX=0.5;entryY=0;entryDx=0;entryDy=0;edgeStyle=orthogonalEdgeStyle;curved=1;" edge="1" parent="sBeESrhMqnMgl-yAjxgN-95" source="sBeESrhMqnMgl-yAjxgN-116" target="sBeESrhMqnMgl-yAjxgN-122">
          <mxGeometry relative="1" as="geometry">
            <mxPoint x="300" y="370" as="sourcePoint" />
            <mxPoint x="300" y="520" as="targetPoint" />
          </mxGeometry>
        </mxCell>
        <mxCell id="oj-2N7qAicwLTaKQeDl2-9" value="2" style="edgeLabel;resizable=0;html=1;;align=center;verticalAlign=middle;" connectable="0" vertex="1" parent="oj-2N7qAicwLTaKQeDl2-8">
          <mxGeometry relative="1" as="geometry">
            <mxPoint x="-35" y="22" as="offset" />
          </mxGeometry>
        </mxCell>
        <mxCell id="sBeESrhMqnMgl-yAjxgN-133" value="Interface de monitoramento" style="swimlane;whiteSpace=wrap;html=1;fontSize=18;rounded=0;" parent="1" vertex="1">
          <mxGeometry x="30" y="800" width="1420" height="490" as="geometry" />
        </mxCell>
        <mxCell id="WbuGZlkKjzKh_Df-_Hdl-44" style="rounded=0;orthogonalLoop=1;jettySize=auto;html=1;exitX=0.25;exitY=1;exitDx=0;exitDy=0;entryX=0.5;entryY=0;entryDx=0;entryDy=0;endArrow=none;startFill=0;" parent="sBeESrhMqnMgl-yAjxgN-133" source="sBeESrhMqnMgl-yAjxgN-140" target="WbuGZlkKjzKh_Df-_Hdl-41" edge="1">
          <mxGeometry relative="1" as="geometry" />
        </mxCell>
        <mxCell id="WbuGZlkKjzKh_Df-_Hdl-45" style="rounded=0;orthogonalLoop=1;jettySize=auto;html=1;entryX=0.5;entryY=0;entryDx=0;entryDy=0;endArrow=none;startFill=0;" parent="sBeESrhMqnMgl-yAjxgN-133" source="sBeESrhMqnMgl-yAjxgN-140" target="WbuGZlkKjzKh_Df-_Hdl-42" edge="1">
          <mxGeometry relative="1" as="geometry" />
        </mxCell>
        <mxCell id="WbuGZlkKjzKh_Df-_Hdl-46" style="rounded=0;orthogonalLoop=1;jettySize=auto;html=1;exitX=0.75;exitY=1;exitDx=0;exitDy=0;entryX=0.5;entryY=0;entryDx=0;entryDy=0;endArrow=none;startFill=0;" parent="sBeESrhMqnMgl-yAjxgN-133" source="sBeESrhMqnMgl-yAjxgN-140" target="WbuGZlkKjzKh_Df-_Hdl-43" edge="1">
          <mxGeometry relative="1" as="geometry" />
        </mxCell>
        <mxCell id="sBeESrhMqnMgl-yAjxgN-140" value="Indicador de&lt;div&gt;média de trafego&lt;/div&gt;&lt;div&gt;&lt;font size=&quot;1&quot;&gt;(Gráfico em&lt;/font&gt;&lt;/div&gt;&lt;div&gt;&lt;font size=&quot;1&quot;&gt;tempo real)&lt;/font&gt;&lt;/div&gt;" style="shape=parallelogram;perimeter=parallelogramPerimeter;whiteSpace=wrap;html=1;fixedSize=1;rounded=0;" parent="sBeESrhMqnMgl-yAjxgN-133" vertex="1">
          <mxGeometry x="170" y="160" width="130" height="60" as="geometry" />
        </mxCell>
        <mxCell id="sBeESrhMqnMgl-yAjxgN-141" value="Algoritmo de&lt;div&gt;mensuramento&lt;/div&gt;&lt;div&gt;de trânsito&lt;/div&gt;&lt;div&gt;&lt;font size=&quot;1&quot;&gt;(núm. de 0 a 2)&lt;/font&gt;&lt;/div&gt;" style="shape=process;whiteSpace=wrap;html=1;backgroundOutline=1;rounded=0;" parent="sBeESrhMqnMgl-yAjxgN-133" vertex="1">
          <mxGeometry x="175" y="40" width="120" height="60" as="geometry" />
        </mxCell>
        <mxCell id="sBeESrhMqnMgl-yAjxgN-144" value="" style="endArrow=classic;html=1;rounded=0;exitX=0.5;exitY=1;exitDx=0;exitDy=0;entryX=0.5;entryY=0;entryDx=0;entryDy=0;" parent="sBeESrhMqnMgl-yAjxgN-133" source="sBeESrhMqnMgl-yAjxgN-141" target="sBeESrhMqnMgl-yAjxgN-140" edge="1">
          <mxGeometry relative="1" as="geometry">
            <mxPoint x="410" y="130" as="sourcePoint" />
            <mxPoint x="510" y="130" as="targetPoint" />
          </mxGeometry>
        </mxCell>
        <mxCell id="sBeESrhMqnMgl-yAjxgN-145" value="Média&lt;div&gt;aritmética&lt;/div&gt;" style="edgeLabel;resizable=0;html=1;;align=center;verticalAlign=middle;rounded=0;" parent="sBeESrhMqnMgl-yAjxgN-144" connectable="0" vertex="1">
          <mxGeometry relative="1" as="geometry" />
        </mxCell>
        <mxCell id="ndApxbI7P8hkZsgr86GA-11" style="edgeStyle=orthogonalEdgeStyle;rounded=0;orthogonalLoop=1;jettySize=auto;html=1;exitX=0.25;exitY=1;exitDx=0;exitDy=0;entryX=0.5;entryY=0;entryDx=0;entryDy=0;curved=1;" parent="sBeESrhMqnMgl-yAjxgN-133" source="ndApxbI7P8hkZsgr86GA-1" target="ndApxbI7P8hkZsgr86GA-6" edge="1">
          <mxGeometry relative="1" as="geometry" />
        </mxCell>
        <mxCell id="ndApxbI7P8hkZsgr86GA-12" style="edgeStyle=orthogonalEdgeStyle;rounded=0;orthogonalLoop=1;jettySize=auto;html=1;entryX=0.5;entryY=0;entryDx=0;entryDy=0;curved=1;" parent="sBeESrhMqnMgl-yAjxgN-133" source="ndApxbI7P8hkZsgr86GA-1" target="ndApxbI7P8hkZsgr86GA-7" edge="1">
          <mxGeometry relative="1" as="geometry" />
        </mxCell>
        <mxCell id="ndApxbI7P8hkZsgr86GA-13" style="edgeStyle=orthogonalEdgeStyle;rounded=0;orthogonalLoop=1;jettySize=auto;html=1;exitX=0.75;exitY=1;exitDx=0;exitDy=0;entryX=0.5;entryY=0;entryDx=0;entryDy=0;curved=1;" parent="sBeESrhMqnMgl-yAjxgN-133" source="ndApxbI7P8hkZsgr86GA-1" target="ndApxbI7P8hkZsgr86GA-8" edge="1">
          <mxGeometry relative="1" as="geometry" />
        </mxCell>
        <mxCell id="ndApxbI7P8hkZsgr86GA-1" value="Controle de&lt;div&gt;semáforos&lt;/div&gt;" style="shape=parallelogram;perimeter=parallelogramPerimeter;whiteSpace=wrap;html=1;fixedSize=1;rounded=0;" parent="sBeESrhMqnMgl-yAjxgN-133" vertex="1">
          <mxGeometry x="1130" y="100" width="120" height="60" as="geometry" />
        </mxCell>
        <mxCell id="ndApxbI7P8hkZsgr86GA-6" value="Região 1*&lt;div&gt;&lt;br&gt;&lt;/div&gt;&lt;div&gt;(* Nome descritivo)&lt;/div&gt;" style="rounded=0;whiteSpace=wrap;html=1;fontSize=10;" parent="sBeESrhMqnMgl-yAjxgN-133" vertex="1">
          <mxGeometry x="980" y="215" width="120" height="60" as="geometry" />
        </mxCell>
        <mxCell id="ndApxbI7P8hkZsgr86GA-7" value="Região 2*&lt;div&gt;&lt;br&gt;&lt;/div&gt;&lt;div&gt;(* Nome descritivo)&lt;/div&gt;" style="rounded=0;whiteSpace=wrap;html=1;fontSize=10;" parent="sBeESrhMqnMgl-yAjxgN-133" vertex="1">
          <mxGeometry x="1130" y="215" width="120" height="60" as="geometry" />
        </mxCell>
        <mxCell id="WbuGZlkKjzKh_Df-_Hdl-27" style="edgeStyle=orthogonalEdgeStyle;rounded=0;orthogonalLoop=1;jettySize=auto;html=1;exitX=0.25;exitY=1;exitDx=0;exitDy=0;endArrow=blockThin;endFill=1;" parent="sBeESrhMqnMgl-yAjxgN-133" source="ndApxbI7P8hkZsgr86GA-8" target="WbuGZlkKjzKh_Df-_Hdl-15" edge="1">
          <mxGeometry relative="1" as="geometry">
            <Array as="points">
              <mxPoint x="1300" y="310" />
            </Array>
          </mxGeometry>
        </mxCell>
        <mxCell id="ndApxbI7P8hkZsgr86GA-8" value="Região 3*&lt;div&gt;&lt;br&gt;&lt;/div&gt;&lt;div&gt;(* Nome descritivo)&lt;/div&gt;" style="rounded=0;whiteSpace=wrap;html=1;fontSize=10;" parent="sBeESrhMqnMgl-yAjxgN-133" vertex="1">
          <mxGeometry x="1270" y="215" width="120" height="60" as="geometry" />
        </mxCell>
        <mxCell id="WbuGZlkKjzKh_Df-_Hdl-1" value="&lt;font size=&quot;1&quot;&gt;Alterar o sinal&lt;/font&gt;&lt;div&gt;&lt;font size=&quot;1&quot;&gt;atual&lt;/font&gt;&lt;/div&gt;" style="shape=trapezoid;perimeter=trapezoidPerimeter;whiteSpace=wrap;html=1;fixedSize=1;direction=west;rounded=0;" parent="sBeESrhMqnMgl-yAjxgN-133" vertex="1">
          <mxGeometry x="1080" y="390" width="100" height="40" as="geometry" />
        </mxCell>
        <mxCell id="WbuGZlkKjzKh_Df-_Hdl-2" value="&lt;font size=&quot;1&quot;&gt;Alterar o intervalo&lt;/font&gt;&lt;div&gt;&lt;font size=&quot;1&quot;&gt;do sinal&lt;/font&gt;&lt;/div&gt;" style="shape=trapezoid;perimeter=trapezoidPerimeter;whiteSpace=wrap;html=1;fixedSize=1;direction=west;rounded=0;" parent="sBeESrhMqnMgl-yAjxgN-133" vertex="1">
          <mxGeometry x="1200" y="390" width="100" height="40" as="geometry" />
        </mxCell>
        <mxCell id="WbuGZlkKjzKh_Df-_Hdl-3" value="&lt;font style=&quot;font-size: 8px;&quot;&gt;Formas de controle&lt;/font&gt;" style="shape=curlyBracket;whiteSpace=wrap;html=1;rounded=0;labelPosition=left;verticalLabelPosition=middle;align=right;verticalAlign=middle;direction=south;size=0.5;" parent="sBeESrhMqnMgl-yAjxgN-133" vertex="1">
          <mxGeometry x="1130" y="350" width="120" height="20" as="geometry" />
        </mxCell>
        <mxCell id="WbuGZlkKjzKh_Df-_Hdl-15" value="" style="shape=waypoint;fillStyle=solid;size=6;pointerEvents=1;points=[];fillColor=none;resizable=0;rotatable=0;perimeter=centerPerimeter;snapToPoint=1;strokeColor=default;rounded=0;" parent="sBeESrhMqnMgl-yAjxgN-133" vertex="1">
          <mxGeometry x="1180" y="300" width="20" height="20" as="geometry" />
        </mxCell>
        <mxCell id="WbuGZlkKjzKh_Df-_Hdl-17" style="edgeStyle=orthogonalEdgeStyle;rounded=0;orthogonalLoop=1;jettySize=auto;html=1;exitX=0.1;exitY=0.5;exitDx=0;exitDy=0;exitPerimeter=0;entryX=0.571;entryY=0.676;entryDx=0;entryDy=0;entryPerimeter=0;endArrow=none;startFill=0;" parent="sBeESrhMqnMgl-yAjxgN-133" source="WbuGZlkKjzKh_Df-_Hdl-3" target="WbuGZlkKjzKh_Df-_Hdl-15" edge="1">
          <mxGeometry relative="1" as="geometry" />
        </mxCell>
        <mxCell id="WbuGZlkKjzKh_Df-_Hdl-18" style="rounded=0;orthogonalLoop=1;jettySize=auto;html=1;exitX=0.75;exitY=1;exitDx=0;exitDy=0;entryX=0.038;entryY=0.551;entryDx=0;entryDy=0;edgeStyle=orthogonalEdgeStyle;endArrow=blockThin;endFill=1;entryPerimeter=0;" parent="sBeESrhMqnMgl-yAjxgN-133" source="ndApxbI7P8hkZsgr86GA-6" target="WbuGZlkKjzKh_Df-_Hdl-15" edge="1">
          <mxGeometry relative="1" as="geometry">
            <Array as="points">
              <mxPoint x="1070" y="310" />
            </Array>
          </mxGeometry>
        </mxCell>
        <mxCell id="WbuGZlkKjzKh_Df-_Hdl-19" style="edgeStyle=orthogonalEdgeStyle;rounded=0;orthogonalLoop=1;jettySize=auto;html=1;entryX=0.464;entryY=0.178;entryDx=0;entryDy=0;entryPerimeter=0;endArrow=blockThin;endFill=1;" parent="sBeESrhMqnMgl-yAjxgN-133" source="ndApxbI7P8hkZsgr86GA-7" target="WbuGZlkKjzKh_Df-_Hdl-15" edge="1">
          <mxGeometry relative="1" as="geometry" />
        </mxCell>
        <mxCell id="WbuGZlkKjzKh_Df-_Hdl-24" style="edgeStyle=orthogonalEdgeStyle;rounded=0;orthogonalLoop=1;jettySize=auto;html=1;entryX=1;entryY=0;entryDx=0;entryDy=0;entryPerimeter=0;endArrow=none;startFill=0;" parent="sBeESrhMqnMgl-yAjxgN-133" source="WbuGZlkKjzKh_Df-_Hdl-2" target="WbuGZlkKjzKh_Df-_Hdl-3" edge="1">
          <mxGeometry relative="1" as="geometry" />
        </mxCell>
        <mxCell id="WbuGZlkKjzKh_Df-_Hdl-25" style="edgeStyle=orthogonalEdgeStyle;rounded=0;orthogonalLoop=1;jettySize=auto;html=1;entryX=1;entryY=1;entryDx=0;entryDy=0;entryPerimeter=0;endArrow=none;startFill=0;" parent="sBeESrhMqnMgl-yAjxgN-133" source="WbuGZlkKjzKh_Df-_Hdl-1" target="WbuGZlkKjzKh_Df-_Hdl-3" edge="1">
          <mxGeometry relative="1" as="geometry" />
        </mxCell>
        <mxCell id="WbuGZlkKjzKh_Df-_Hdl-35" style="rounded=0;orthogonalLoop=1;jettySize=auto;html=1;exitX=0.25;exitY=1;exitDx=0;exitDy=0;entryX=0.5;entryY=0;entryDx=0;entryDy=0;endArrow=none;startFill=0;" parent="sBeESrhMqnMgl-yAjxgN-133" source="WbuGZlkKjzKh_Df-_Hdl-28" target="WbuGZlkKjzKh_Df-_Hdl-32" edge="1">
          <mxGeometry relative="1" as="geometry" />
        </mxCell>
        <mxCell id="WbuGZlkKjzKh_Df-_Hdl-36" style="rounded=0;orthogonalLoop=1;jettySize=auto;html=1;exitX=0.5;exitY=1;exitDx=0;exitDy=0;entryX=0.5;entryY=0;entryDx=0;entryDy=0;endArrow=none;startFill=0;" parent="sBeESrhMqnMgl-yAjxgN-133" source="WbuGZlkKjzKh_Df-_Hdl-28" target="WbuGZlkKjzKh_Df-_Hdl-33" edge="1">
          <mxGeometry relative="1" as="geometry" />
        </mxCell>
        <mxCell id="WbuGZlkKjzKh_Df-_Hdl-37" style="rounded=0;orthogonalLoop=1;jettySize=auto;html=1;exitX=0.75;exitY=1;exitDx=0;exitDy=0;entryX=0.5;entryY=0;entryDx=0;entryDy=0;endArrow=none;startFill=0;" parent="sBeESrhMqnMgl-yAjxgN-133" source="WbuGZlkKjzKh_Df-_Hdl-28" target="WbuGZlkKjzKh_Df-_Hdl-34" edge="1">
          <mxGeometry relative="1" as="geometry" />
        </mxCell>
        <mxCell id="WbuGZlkKjzKh_Df-_Hdl-28" value="Imagens em&lt;div&gt;tempo real&lt;/div&gt;&lt;div&gt;das câmeras&lt;/div&gt;" style="shape=parallelogram;perimeter=parallelogramPerimeter;whiteSpace=wrap;html=1;fixedSize=1;rounded=0;" parent="sBeESrhMqnMgl-yAjxgN-133" vertex="1">
          <mxGeometry x="655" y="100" width="120" height="60" as="geometry" />
        </mxCell>
        <mxCell id="WbuGZlkKjzKh_Df-_Hdl-32" value="Região 1*&lt;div&gt;&lt;br&gt;&lt;/div&gt;&lt;div&gt;(* Nome descritivo)&lt;/div&gt;" style="rounded=0;whiteSpace=wrap;html=1;fontSize=10;" parent="sBeESrhMqnMgl-yAjxgN-133" vertex="1">
          <mxGeometry x="510" y="220" width="120" height="60" as="geometry" />
        </mxCell>
        <mxCell id="WbuGZlkKjzKh_Df-_Hdl-33" value="Região 2*&lt;div&gt;&lt;br&gt;&lt;/div&gt;&lt;div&gt;(* Nome descritivo)&lt;/div&gt;" style="rounded=0;whiteSpace=wrap;html=1;fontSize=10;" parent="sBeESrhMqnMgl-yAjxgN-133" vertex="1">
          <mxGeometry x="655" y="220" width="120" height="60" as="geometry" />
        </mxCell>
        <mxCell id="WbuGZlkKjzKh_Df-_Hdl-34" value="Região 3*&lt;div&gt;&lt;br&gt;&lt;/div&gt;&lt;div&gt;(* Nome descritivo)&lt;/div&gt;" style="rounded=0;whiteSpace=wrap;html=1;fontSize=10;" parent="sBeESrhMqnMgl-yAjxgN-133" vertex="1">
          <mxGeometry x="800" y="220" width="120" height="60" as="geometry" />
        </mxCell>
        <mxCell id="WbuGZlkKjzKh_Df-_Hdl-41" value="Região 1*&lt;div&gt;&lt;br&gt;&lt;/div&gt;&lt;div&gt;(* Nome descritivo)&lt;/div&gt;" style="rounded=0;whiteSpace=wrap;html=1;fontSize=10;" parent="sBeESrhMqnMgl-yAjxgN-133" vertex="1">
          <mxGeometry x="30" y="260" width="120" height="60" as="geometry" />
        </mxCell>
        <mxCell id="WbuGZlkKjzKh_Df-_Hdl-42" value="Região 2*&lt;div&gt;&lt;br&gt;&lt;/div&gt;&lt;div&gt;(* Nome descritivo)&lt;/div&gt;" style="rounded=0;whiteSpace=wrap;html=1;fontSize=10;" parent="sBeESrhMqnMgl-yAjxgN-133" vertex="1">
          <mxGeometry x="175" y="260" width="120" height="60" as="geometry" />
        </mxCell>
        <mxCell id="WbuGZlkKjzKh_Df-_Hdl-43" value="Região 3*&lt;div&gt;&lt;br&gt;&lt;/div&gt;&lt;div&gt;(* Nome descritivo)&lt;/div&gt;" style="rounded=0;whiteSpace=wrap;html=1;fontSize=10;" parent="sBeESrhMqnMgl-yAjxgN-133" vertex="1">
          <mxGeometry x="320" y="260" width="120" height="60" as="geometry" />
        </mxCell>
        <mxCell id="sBeESrhMqnMgl-yAjxgN-143" value="Dependendo do valor, o indicador dirá quando uma ação manual deve ser tomada.&lt;div&gt;&lt;br&gt;&lt;/div&gt;&lt;div&gt;Ex. Em caso de valores médios altos, o trânsito é intenso. Procure ver a causa do problema diretamente.&lt;/div&gt;" style="text;html=1;whiteSpace=wrap;overflow=hidden;rounded=0;" parent="sBeESrhMqnMgl-yAjxgN-133" vertex="1">
          <mxGeometry x="145" y="350" width="180" height="120" as="geometry" />
        </mxCell>
        <mxCell id="ndApxbI7P8hkZsgr86GA-25" value="Algoritmo de mensuramento de trânsito de região N" style="swimlane;whiteSpace=wrap;html=1;align=center;spacingLeft=0;rounded=0;" parent="1" vertex="1">
          <mxGeometry x="1330" y="235" width="540" height="270" as="geometry">
            <mxRectangle x="1330" y="235" width="310" height="30" as="alternateBounds" />
          </mxGeometry>
        </mxCell>
        <mxCell id="ndApxbI7P8hkZsgr86GA-26" value="Núm. de&lt;div&gt;0 a 2&lt;/div&gt;" style="triangle;whiteSpace=wrap;html=1;direction=west;align=center;fontSize=10;spacingLeft=20;rounded=0;" parent="ndApxbI7P8hkZsgr86GA-25" vertex="1">
          <mxGeometry x="40" y="105" width="90" height="70" as="geometry" />
        </mxCell>
        <mxCell id="ndApxbI7P8hkZsgr86GA-46" style="edgeStyle=orthogonalEdgeStyle;rounded=0;orthogonalLoop=1;jettySize=auto;html=1;entryX=0.5;entryY=0;entryDx=0;entryDy=0;" parent="ndApxbI7P8hkZsgr86GA-25" source="sBeESrhMqnMgl-yAjxgN-107" target="sBeESrhMqnMgl-yAjxgN-111" edge="1">
          <mxGeometry relative="1" as="geometry" />
        </mxCell>
        <mxCell id="sBeESrhMqnMgl-yAjxgN-107" value="&lt;font size=&quot;1&quot;&gt;Câmeras&lt;/font&gt;" style="shape=parallelogram;perimeter=parallelogramPerimeter;whiteSpace=wrap;html=1;fixedSize=1;rounded=0;" parent="ndApxbI7P8hkZsgr86GA-25" vertex="1">
          <mxGeometry x="263" y="65" width="101" height="40" as="geometry" />
        </mxCell>
        <mxCell id="ndApxbI7P8hkZsgr86GA-48" style="edgeStyle=orthogonalEdgeStyle;rounded=0;orthogonalLoop=1;jettySize=auto;html=1;entryX=1;entryY=0.5;entryDx=0;entryDy=0;" parent="ndApxbI7P8hkZsgr86GA-25" source="sBeESrhMqnMgl-yAjxgN-108" target="sBeESrhMqnMgl-yAjxgN-111" edge="1">
          <mxGeometry relative="1" as="geometry" />
        </mxCell>
        <mxCell id="sBeESrhMqnMgl-yAjxgN-108" value="&lt;font size=&quot;1&quot;&gt;Infravermelhos&lt;/font&gt;&lt;div&gt;&lt;font size=&quot;1&quot;&gt;LDRs&lt;/font&gt;&lt;/div&gt;" style="shape=parallelogram;perimeter=parallelogramPerimeter;whiteSpace=wrap;html=1;fixedSize=1;rounded=0;" parent="ndApxbI7P8hkZsgr86GA-25" vertex="1">
          <mxGeometry x="263" y="120" width="101" height="40" as="geometry" />
        </mxCell>
        <mxCell id="ndApxbI7P8hkZsgr86GA-47" style="edgeStyle=orthogonalEdgeStyle;rounded=0;orthogonalLoop=1;jettySize=auto;html=1;exitX=0;exitY=0.5;exitDx=0;exitDy=0;entryX=0.5;entryY=1;entryDx=0;entryDy=0;" parent="ndApxbI7P8hkZsgr86GA-25" source="sBeESrhMqnMgl-yAjxgN-109" target="sBeESrhMqnMgl-yAjxgN-111" edge="1">
          <mxGeometry relative="1" as="geometry" />
        </mxCell>
        <mxCell id="sBeESrhMqnMgl-yAjxgN-109" value="&lt;font size=&quot;1&quot;&gt;Ultrassônicos&lt;/font&gt;" style="shape=parallelogram;perimeter=parallelogramPerimeter;whiteSpace=wrap;html=1;fixedSize=1;rounded=0;" parent="ndApxbI7P8hkZsgr86GA-25" vertex="1">
          <mxGeometry x="263" y="175" width="101" height="40" as="geometry" />
        </mxCell>
        <mxCell id="ndApxbI7P8hkZsgr86GA-43" style="rounded=0;orthogonalLoop=1;jettySize=auto;html=1;exitX=0;exitY=0;exitDx=0;exitDy=0;entryX=1;entryY=0.5;entryDx=0;entryDy=0;endArrow=none;startFill=0;" parent="ndApxbI7P8hkZsgr86GA-25" source="ndApxbI7P8hkZsgr86GA-20" target="sBeESrhMqnMgl-yAjxgN-107" edge="1">
          <mxGeometry relative="1" as="geometry" />
        </mxCell>
        <mxCell id="ndApxbI7P8hkZsgr86GA-44" style="rounded=0;orthogonalLoop=1;jettySize=auto;html=1;exitX=0;exitY=0.5;exitDx=0;exitDy=0;entryX=1;entryY=0.5;entryDx=0;entryDy=0;endArrow=none;startFill=0;" parent="ndApxbI7P8hkZsgr86GA-25" source="ndApxbI7P8hkZsgr86GA-20" target="sBeESrhMqnMgl-yAjxgN-108" edge="1">
          <mxGeometry relative="1" as="geometry" />
        </mxCell>
        <mxCell id="ndApxbI7P8hkZsgr86GA-45" style="rounded=0;orthogonalLoop=1;jettySize=auto;html=1;exitX=0;exitY=1;exitDx=0;exitDy=0;entryX=1;entryY=0.5;entryDx=0;entryDy=0;endArrow=none;startFill=0;" parent="ndApxbI7P8hkZsgr86GA-25" source="ndApxbI7P8hkZsgr86GA-20" target="sBeESrhMqnMgl-yAjxgN-109" edge="1">
          <mxGeometry relative="1" as="geometry" />
        </mxCell>
        <mxCell id="ndApxbI7P8hkZsgr86GA-20" value="Região N*&lt;div&gt;&lt;br&gt;&lt;/div&gt;&lt;div&gt;(* Nome descritivo)&lt;/div&gt;" style="rounded=0;whiteSpace=wrap;html=1;fontSize=10;" parent="ndApxbI7P8hkZsgr86GA-25" vertex="1">
          <mxGeometry x="390" y="115" width="100" height="50" as="geometry" />
        </mxCell>
        <mxCell id="sBeESrhMqnMgl-yAjxgN-111" value="&lt;font size=&quot;1&quot;&gt;Fórmula&lt;/font&gt;" style="shape=hexagon;perimeter=hexagonPerimeter2;whiteSpace=wrap;html=1;fixedSize=1;rounded=0;" parent="ndApxbI7P8hkZsgr86GA-25" vertex="1">
          <mxGeometry x="160" y="125" width="80" height="30" as="geometry" />
        </mxCell>
        <mxCell id="ndApxbI7P8hkZsgr86GA-27" style="edgeStyle=orthogonalEdgeStyle;rounded=0;orthogonalLoop=1;jettySize=auto;html=1;exitX=0;exitY=0.5;exitDx=0;exitDy=0;entryX=0;entryY=0.5;entryDx=0;entryDy=0;" parent="ndApxbI7P8hkZsgr86GA-25" source="sBeESrhMqnMgl-yAjxgN-111" target="ndApxbI7P8hkZsgr86GA-26" edge="1">
          <mxGeometry relative="1" as="geometry" />
        </mxCell>
      </root>
    </mxGraphModel>
  </diagram>
  <diagram id="m53iEitaneDhPDZM40q9" name="Página 2">
    <mxGraphModel dx="1105" dy="662" grid="1" gridSize="10" guides="1" tooltips="1" connect="1" arrows="1" fold="1" page="1" pageScale="1" pageWidth="827" pageHeight="1169" math="0" shadow="0">
      <root>
        <mxCell id="0" />
        <mxCell id="1" parent="0" />
        <mxCell id="JMCQbIyPL3OuXGpOp0cB-11" style="rounded=0;orthogonalLoop=1;jettySize=auto;html=1;exitX=1;exitY=1;exitDx=0;exitDy=0;entryX=0;entryY=0.5;entryDx=0;entryDy=0;" edge="1" parent="1" source="JMCQbIyPL3OuXGpOp0cB-1" target="JMCQbIyPL3OuXGpOp0cB-10">
          <mxGeometry relative="1" as="geometry" />
        </mxCell>
        <mxCell id="JMCQbIyPL3OuXGpOp0cB-12" style="rounded=0;orthogonalLoop=1;jettySize=auto;html=1;exitX=1;exitY=0;exitDx=0;exitDy=0;entryX=0;entryY=0.5;entryDx=0;entryDy=0;" edge="1" parent="1" source="JMCQbIyPL3OuXGpOp0cB-1" target="JMCQbIyPL3OuXGpOp0cB-9">
          <mxGeometry relative="1" as="geometry" />
        </mxCell>
        <mxCell id="JMCQbIyPL3OuXGpOp0cB-1" value="Início" style="ellipse;whiteSpace=wrap;html=1;" vertex="1" parent="1">
          <mxGeometry x="60" y="380" width="90" height="33.33" as="geometry" />
        </mxCell>
        <mxCell id="JMCQbIyPL3OuXGpOp0cB-17" value="" style="edgeStyle=orthogonalEdgeStyle;rounded=0;orthogonalLoop=1;jettySize=auto;html=1;" edge="1" parent="1" source="JMCQbIyPL3OuXGpOp0cB-7" target="JMCQbIyPL3OuXGpOp0cB-16">
          <mxGeometry relative="1" as="geometry" />
        </mxCell>
        <mxCell id="JMCQbIyPL3OuXGpOp0cB-7" value="Base" style="rounded=0;whiteSpace=wrap;html=1;" vertex="1" parent="1">
          <mxGeometry x="414" y="280" width="120" height="60" as="geometry" />
        </mxCell>
        <mxCell id="JMCQbIyPL3OuXGpOp0cB-13" style="edgeStyle=orthogonalEdgeStyle;rounded=0;orthogonalLoop=1;jettySize=auto;html=1;entryX=0;entryY=0.5;entryDx=0;entryDy=0;" edge="1" parent="1" source="JMCQbIyPL3OuXGpOp0cB-9" target="JMCQbIyPL3OuXGpOp0cB-7">
          <mxGeometry relative="1" as="geometry" />
        </mxCell>
        <mxCell id="JMCQbIyPL3OuXGpOp0cB-9" value="Maquete" style="shape=parallelogram;perimeter=parallelogramPerimeter;whiteSpace=wrap;html=1;fixedSize=1;" vertex="1" parent="1">
          <mxGeometry x="220" y="280" width="120" height="60" as="geometry" />
        </mxCell>
        <mxCell id="JMCQbIyPL3OuXGpOp0cB-19" value="" style="edgeStyle=orthogonalEdgeStyle;rounded=0;orthogonalLoop=1;jettySize=auto;html=1;" edge="1" parent="1" source="JMCQbIyPL3OuXGpOp0cB-10" target="JMCQbIyPL3OuXGpOp0cB-18">
          <mxGeometry relative="1" as="geometry">
            <Array as="points">
              <mxPoint x="280" y="585" />
            </Array>
          </mxGeometry>
        </mxCell>
        <mxCell id="JMCQbIyPL3OuXGpOp0cB-10" value="Interface de&lt;div&gt;usuário&lt;/div&gt;" style="shape=parallelogram;perimeter=parallelogramPerimeter;whiteSpace=wrap;html=1;fixedSize=1;" vertex="1" parent="1">
          <mxGeometry x="220" y="460" width="120" height="60" as="geometry" />
        </mxCell>
        <mxCell id="JMCQbIyPL3OuXGpOp0cB-21" value="" style="edgeStyle=orthogonalEdgeStyle;rounded=0;orthogonalLoop=1;jettySize=auto;html=1;" edge="1" parent="1" source="JMCQbIyPL3OuXGpOp0cB-16" target="JMCQbIyPL3OuXGpOp0cB-20">
          <mxGeometry relative="1" as="geometry">
            <Array as="points">
              <mxPoint x="674" y="100" />
              <mxPoint x="980" y="100" />
            </Array>
          </mxGeometry>
        </mxCell>
        <mxCell id="JMCQbIyPL3OuXGpOp0cB-23" value="" style="edgeStyle=orthogonalEdgeStyle;rounded=0;orthogonalLoop=1;jettySize=auto;html=1;" edge="1" parent="1" source="JMCQbIyPL3OuXGpOp0cB-16" target="JMCQbIyPL3OuXGpOp0cB-22">
          <mxGeometry relative="1" as="geometry">
            <Array as="points">
              <mxPoint x="827" y="310" />
              <mxPoint x="827" y="280" />
            </Array>
          </mxGeometry>
        </mxCell>
        <mxCell id="JMCQbIyPL3OuXGpOp0cB-25" value="" style="edgeStyle=orthogonalEdgeStyle;rounded=0;orthogonalLoop=1;jettySize=auto;html=1;" edge="1" parent="1" source="JMCQbIyPL3OuXGpOp0cB-16" target="JMCQbIyPL3OuXGpOp0cB-24">
          <mxGeometry relative="1" as="geometry">
            <Array as="points">
              <mxPoint x="674" y="443" />
            </Array>
          </mxGeometry>
        </mxCell>
        <mxCell id="JMCQbIyPL3OuXGpOp0cB-16" value="Ruas" style="rounded=0;whiteSpace=wrap;html=1;" vertex="1" parent="1">
          <mxGeometry x="614" y="280" width="120" height="60" as="geometry" />
        </mxCell>
        <mxCell id="JMCQbIyPL3OuXGpOp0cB-27" value="" style="edgeStyle=orthogonalEdgeStyle;rounded=0;orthogonalLoop=1;jettySize=auto;html=1;" edge="1" parent="1" source="JMCQbIyPL3OuXGpOp0cB-18" target="JMCQbIyPL3OuXGpOp0cB-26">
          <mxGeometry relative="1" as="geometry" />
        </mxCell>
        <mxCell id="JMCQbIyPL3OuXGpOp0cB-18" value="Esboço" style="whiteSpace=wrap;html=1;" vertex="1" parent="1">
          <mxGeometry x="614" y="555" width="120" height="60" as="geometry" />
        </mxCell>
        <mxCell id="JMCQbIyPL3OuXGpOp0cB-48" style="edgeStyle=orthogonalEdgeStyle;rounded=0;orthogonalLoop=1;jettySize=auto;html=1;entryX=0;entryY=0.5;entryDx=0;entryDy=0;" edge="1" parent="1" source="JMCQbIyPL3OuXGpOp0cB-20" target="JMCQbIyPL3OuXGpOp0cB-50">
          <mxGeometry relative="1" as="geometry">
            <mxPoint x="1860" y="100" as="targetPoint" />
          </mxGeometry>
        </mxCell>
        <mxCell id="JMCQbIyPL3OuXGpOp0cB-20" value="Melhorias" style="whiteSpace=wrap;html=1;rounded=0;" vertex="1" parent="1">
          <mxGeometry x="920" y="70" width="120" height="60" as="geometry" />
        </mxCell>
        <mxCell id="JMCQbIyPL3OuXGpOp0cB-36" style="edgeStyle=orthogonalEdgeStyle;rounded=0;orthogonalLoop=1;jettySize=auto;html=1;exitX=1;exitY=0.25;exitDx=0;exitDy=0;entryX=0;entryY=0.5;entryDx=0;entryDy=0;" edge="1" parent="1" source="JMCQbIyPL3OuXGpOp0cB-22" target="JMCQbIyPL3OuXGpOp0cB-33">
          <mxGeometry relative="1" as="geometry">
            <Array as="points">
              <mxPoint x="1000" y="265" />
              <mxPoint x="1000" y="200" />
            </Array>
          </mxGeometry>
        </mxCell>
        <mxCell id="JMCQbIyPL3OuXGpOp0cB-42" style="edgeStyle=orthogonalEdgeStyle;rounded=0;orthogonalLoop=1;jettySize=auto;html=1;entryX=0;entryY=0.5;entryDx=0;entryDy=0;" edge="1" parent="1" source="JMCQbIyPL3OuXGpOp0cB-22" target="JMCQbIyPL3OuXGpOp0cB-41">
          <mxGeometry relative="1" as="geometry" />
        </mxCell>
        <mxCell id="JMCQbIyPL3OuXGpOp0cB-69" style="edgeStyle=orthogonalEdgeStyle;rounded=0;orthogonalLoop=1;jettySize=auto;html=1;exitX=0.75;exitY=1;exitDx=0;exitDy=0;entryX=0.5;entryY=0;entryDx=0;entryDy=0;strokeWidth=1;endArrow=halfCircle;endFill=0;" edge="1" parent="1" source="JMCQbIyPL3OuXGpOp0cB-22" target="JMCQbIyPL3OuXGpOp0cB-26">
          <mxGeometry relative="1" as="geometry">
            <Array as="points">
              <mxPoint x="1010" y="380" />
              <mxPoint x="1490" y="380" />
            </Array>
          </mxGeometry>
        </mxCell>
        <mxCell id="JMCQbIyPL3OuXGpOp0cB-22" value="Posicionamento de&lt;div&gt;Sensores&lt;/div&gt;" style="whiteSpace=wrap;html=1;rounded=0;" vertex="1" parent="1">
          <mxGeometry x="920" y="250" width="120" height="60" as="geometry" />
        </mxCell>
        <mxCell id="JMCQbIyPL3OuXGpOp0cB-66" style="edgeStyle=orthogonalEdgeStyle;rounded=0;orthogonalLoop=1;jettySize=auto;html=1;entryX=0;entryY=0.5;entryDx=0;entryDy=0;" edge="1" parent="1" source="JMCQbIyPL3OuXGpOp0cB-24" target="JMCQbIyPL3OuXGpOp0cB-67">
          <mxGeometry relative="1" as="geometry">
            <mxPoint x="1630" y="443.3299999999999" as="targetPoint" />
          </mxGeometry>
        </mxCell>
        <mxCell id="JMCQbIyPL3OuXGpOp0cB-24" value="Posicionamento de&lt;div&gt;Placas de&lt;/div&gt;&lt;div&gt;Sinalização&lt;/div&gt;" style="whiteSpace=wrap;html=1;rounded=0;" vertex="1" parent="1">
          <mxGeometry x="920" y="413.33" width="120" height="60" as="geometry" />
        </mxCell>
        <mxCell id="JMCQbIyPL3OuXGpOp0cB-53" style="edgeStyle=orthogonalEdgeStyle;rounded=0;orthogonalLoop=1;jettySize=auto;html=1;entryX=0;entryY=0.5;entryDx=0;entryDy=0;" edge="1" parent="1" source="JMCQbIyPL3OuXGpOp0cB-26" target="JMCQbIyPL3OuXGpOp0cB-56">
          <mxGeometry relative="1" as="geometry">
            <mxPoint x="1640" y="585" as="targetPoint" />
          </mxGeometry>
        </mxCell>
        <mxCell id="JMCQbIyPL3OuXGpOp0cB-26" value="Protótipo" style="whiteSpace=wrap;html=1;" vertex="1" parent="1">
          <mxGeometry x="1430" y="555" width="120" height="60" as="geometry" />
        </mxCell>
        <mxCell id="JMCQbIyPL3OuXGpOp0cB-45" value="" style="edgeStyle=orthogonalEdgeStyle;rounded=0;orthogonalLoop=1;jettySize=auto;html=1;" edge="1" parent="1" source="JMCQbIyPL3OuXGpOp0cB-33" target="JMCQbIyPL3OuXGpOp0cB-44">
          <mxGeometry relative="1" as="geometry" />
        </mxCell>
        <mxCell id="JMCQbIyPL3OuXGpOp0cB-33" value="Semáforo&lt;div&gt;inteligente&lt;/div&gt;" style="shape=parallelogram;perimeter=parallelogramPerimeter;whiteSpace=wrap;html=1;fixedSize=1;" vertex="1" parent="1">
          <mxGeometry x="1110" y="170" width="120" height="60" as="geometry" />
        </mxCell>
        <mxCell id="JMCQbIyPL3OuXGpOp0cB-41" value="Melhorias" style="whiteSpace=wrap;html=1;" vertex="1" parent="1">
          <mxGeometry x="1430" y="250" width="120" height="60" as="geometry" />
        </mxCell>
        <mxCell id="JMCQbIyPL3OuXGpOp0cB-47" value="" style="edgeStyle=orthogonalEdgeStyle;rounded=0;orthogonalLoop=1;jettySize=auto;html=1;" edge="1" parent="1" source="JMCQbIyPL3OuXGpOp0cB-44" target="JMCQbIyPL3OuXGpOp0cB-46">
          <mxGeometry relative="1" as="geometry" />
        </mxCell>
        <mxCell id="JMCQbIyPL3OuXGpOp0cB-44" value="Protótipo" style="whiteSpace=wrap;html=1;" vertex="1" parent="1">
          <mxGeometry x="1430" y="170" width="120" height="60" as="geometry" />
        </mxCell>
        <mxCell id="JMCQbIyPL3OuXGpOp0cB-46" value="Melhorias" style="whiteSpace=wrap;html=1;" vertex="1" parent="1">
          <mxGeometry x="1640" y="170" width="120" height="60" as="geometry" />
        </mxCell>
        <mxCell id="JMCQbIyPL3OuXGpOp0cB-52" value="" style="edgeStyle=orthogonalEdgeStyle;rounded=0;orthogonalLoop=1;jettySize=auto;html=1;" edge="1" parent="1" source="JMCQbIyPL3OuXGpOp0cB-50" target="JMCQbIyPL3OuXGpOp0cB-51">
          <mxGeometry relative="1" as="geometry" />
        </mxCell>
        <mxCell id="JMCQbIyPL3OuXGpOp0cB-50" value="Detalhes" style="shape=parallelogram;perimeter=parallelogramPerimeter;whiteSpace=wrap;html=1;fixedSize=1;" vertex="1" parent="1">
          <mxGeometry x="1800" y="70" width="120" height="60" as="geometry" />
        </mxCell>
        <mxCell id="JMCQbIyPL3OuXGpOp0cB-51" value="Ambiente,&lt;div&gt;Estético,&lt;/div&gt;&lt;div&gt;etc.&lt;/div&gt;" style="whiteSpace=wrap;html=1;" vertex="1" parent="1">
          <mxGeometry x="2000" y="70" width="120" height="60" as="geometry" />
        </mxCell>
        <mxCell id="JMCQbIyPL3OuXGpOp0cB-56" value="Melhorias e Documentação" style="whiteSpace=wrap;html=1;" vertex="1" parent="1">
          <mxGeometry x="2000" y="555" width="120" height="60" as="geometry" />
        </mxCell>
        <mxCell id="JMCQbIyPL3OuXGpOp0cB-67" value="Implementação" style="whiteSpace=wrap;html=1;" vertex="1" parent="1">
          <mxGeometry x="1640" y="413.33000000000004" width="120" height="60" as="geometry" />
        </mxCell>
      </root>
    </mxGraphModel>
  </diagram>
</mxfile>
